PathFileType	4	(X/Y/Z)	E:\3-PhD\Data\MocapData\ElaboratedData\009\pre\dynamicElaborations\RunL1\RunL1.trc
DataRate	CameraRate	NumFrames	NumMarkers	Units	OrigDataRate	DataStartFrame
200	200	4	54	mm	200	438
Frame#	Time	FHD			LBHD			RBHD			C7			T10			CLAV			LSHO			LUUPA			LMUPA			LDUPA			LLEP			LMEP			LRAD			LUL			LRFIN			RSHO			RUPA1			RMUPA			RDUPA			RLEP			RMEP			RRAD			RUL			RUFIN			RASI			USACR			LSACR			RSACR			LTHI1			LTHI2			LTHI3			LTHI4			LTIB1			LTIB2			LTIB3			LTIB4			LLMAL			LHEE			LMT1			LMT2			RTHI			RTHI2			RTHI3			RTHI4			RLFC			RTIB1			RTIB2			RTIB3			RTIB4			RLMAL			RHEE			RMT1			RMT2			RMT5		
		X1	Y1	Z1	X2	Y2	Z2	X3	Y3	Z3	X4	Y4	Z4	X5	Y5	Z5	X6	Y6	Z6	X7	Y7	Z7	X8	Y8	Z8	X9	Y9	Z9	X10	Y10	Z10	X11	Y11	Z11	X12	Y12	Z12	X13	Y13	Z13	X14	Y14	Z14	X15	Y15	Z15	X16	Y16	Z16	X17	Y17	Z17	X18	Y18	Z18	X19	Y19	Z19	X20	Y20	Z20	X21	Y21	Z21	X22	Y22	Z22	X23	Y23	Z23	X24	Y24	Z24	X25	Y25	Z25	X26	Y26	Z26	X27	Y27	Z27	X28	Y28	Z28	X29	Y29	Z29	X30	Y30	Z30	X31	Y31	Z31	X32	Y32	Z32	X33	Y33	Z33	X34	Y34	Z34	X35	Y35	Z35	X36	Y36	Z36	X37	Y37	Z37	X38	Y38	Z38	X39	Y39	Z39	X40	Y40	Z40	X41	Y41	Z41	X42	Y42	Z42	X43	Y43	Z43	X44	Y44	Z44	X45	Y45	Z45	X46	Y46	Z46	X47	Y47	Z47	X48	Y48	Z48	X49	Y49	Z49	X50	Y50	Z50	X51	Y51	Z51	X52	Y52	Z52	X53	Y53	Z53	X54	Y54	Z54	

539	2.690000	9.244293	1604.857647	420.260683	-168.962424	1632.576957	332.665908	-130.614194	1613.497007	451.844390	-255.343115	1490.236345	374.832598	-384.085836	1161.902844	354.120741	-136.341144	1367.440592	354.691383	-179.672104	1439.318586	210.393477	-298.844670	1308.571433	103.133760	-279.261534	1264.349081	108.799954	-332.067865	1251.262838	82.004898	-404.414473	1161.916370	58.675178	-435.288157	1151.970286	128.122105	-373.832809	901.945925	72.229782	-440.314209	899.770767	38.166499	-353.388017	845.063129	22.319456	-183.966887	1433.107176	526.400889	-254.212750	1291.126020	617.188279	-227.013354	1251.837309	616.270276	-282.446251	1233.331664	647.473558	-304.907843	1098.760021	677.346218	-328.405891	1077.553794	613.672502	-75.810042	990.046350	616.472127	-95.751776	945.461367	666.359624	-8.553912	997.860983	659.921791	-260.005154	960.443771	464.167027	-418.596229	1083.972189	352.778144	-428.089950	1050.918457	326.516532	-427.673004	1054.898947	385.413655	-244.838366	747.769578	155.064145	-179.299072	693.726826	152.964227	-139.796193	713.401380	169.594114	-181.874197	631.491278	152.089606	-249.335183	461.180410	210.254284	-298.845413	517.821145	164.249800	-298.433368	481.366656	186.194482	-376.686949	476.281760	221.812734	-528.753579	524.347304	220.296302	-569.553849	603.805828	267.800446	-587.797795	383.916874	292.630993	-585.670300	380.630673	246.130973	-331.281798	716.286344	531.950458	-300.177800	659.684273	529.060158	-267.316057	654.988936	520.069835	-336.973374	584.446263	505.999070	-327.058640	473.383480	487.015506	-402.012514	276.912227	426.135106	-500.711618	244.635589	462.199874	-466.626237	221.002520	440.796586	-489.792028	184.902357	404.799395	-588.809193	136.085013	436.212320	-676.624841	120.975474	393.266311	-466.219447	54.722396	355.404225	-464.699517	53.723554	396.114014	-505.126349	38.303512	452.819081	
540	2.695000	36.096517	1609.913438	418.847068	-142.256823	1636.868930	331.297462	-103.784995	1617.784113	450.421870	-228.047194	1493.806976	373.936138	-354.256176	1164.559879	355.140255	-108.606648	1371.998130	352.692874	-154.694755	1443.283219	208.493510	-277.372662	1314.426437	102.137745	-257.776507	1269.915606	106.456910	-311.459717	1257.652581	80.847459	-384.533912	1169.045796	58.139415	-414.309899	1159.049790	127.864750	-357.343063	908.656030	68.304024	-424.733967	908.099423	35.758923	-339.335238	851.526450	16.560108	-155.190919	1438.449320	524.624632	-222.202055	1294.976334	615.889264	-194.165687	1256.330157	614.812740	-249.177622	1236.485643	645.949896	-267.607155	1101.007698	674.952064	-290.477359	1079.642339	611.143227	-33.695089	1005.119451	609.649145	-50.485268	959.231069	659.245480	33.575265	1016.081840	652.251813	-229.732273	961.754577	464.616008	-388.338043	1086.666209	354.068555	-398.045031	1053.686391	327.833427	-397.216818	1057.570374	386.742066	-209.646740	754.843995	155.906027	-141.595714	703.739340	154.392636	-102.989578	725.260534	170.837778	-141.420672	641.364649	154.119289	-201.544509	466.109360	211.204101	-253.809611	520.056561	165.018778	-251.521766	483.677426	186.831852	-329.687276	473.933536	221.659631	-484.477536	512.994779	218.949476	-530.507380	589.434764	266.779522	-534.730177	368.612357	289.974318	-532.047777	365.777845	243.228385	-308.149601	718.073937	531.654248	-279.090203	660.324805	528.598221	-246.470804	654.572354	519.351860	-318.924590	586.452907	506.274226	-313.706139	475.135487	487.527489	-392.952420	280.019009	427.329610	-492.255045	250.121030	463.423781	-458.613383	225.522247	442.391411	-482.398654	189.500639	406.488172	-582.705367	142.553528	437.568038	-670.523694	131.212127	394.915764	-464.993085	54.421872	355.544432	-463.221287	53.545800	396.214433	-503.856285	39.127136	452.901388	
541	2.700000	62.928509	1615.058697	417.421568	-115.547375	1641.205319	329.876215	-76.979049	1622.126143	448.944805	-200.643174	1497.458609	372.938522	-324.309958	1167.291652	356.220106	-80.833203	1376.659921	350.684824	-129.692096	1447.306026	206.652437	-255.840045	1320.512815	101.233672	-236.341560	1275.710039	104.215696	-290.828672	1264.312076	79.782000	-364.722723	1176.494330	57.618979	-393.407748	1166.371052	127.560061	-340.228177	915.879304	64.521496	-408.405593	916.662079	33.489495	-324.426252	858.607066	11.275793	-126.463194	1443.924467	522.787999	-190.076261	1299.098265	614.599918	-161.300789	1261.093738	613.229148	-215.627722	1239.967027	644.497883	-230.514654	1103.776459	672.733950	-252.926338	1082.323599	608.719991	7.276743	1020.844175	602.815258	-6.291706	973.853927	652.032319	74.457014	1034.900997	644.522118	-199.347776	963.091766	465.082316	-357.809096	1089.417244	355.437388	-367.807434	1056.553127	329.204391	-366.542619	1060.283107	388.126427	-174.547167	762.025475	156.696155	-104.326807	713.710893	155.837414	-66.679586	736.940083	172.197132	-101.589717	651.323320	156.192885	-154.188950	471.097341	212.176067	-209.158294	522.194970	165.906935	-204.916278	485.937963	187.511276	-282.694489	471.363620	221.573899	-439.792696	501.013536	217.652725	-490.955003	574.001117	265.741636	-480.679154	353.184286	287.422918	-477.586735	350.843731	240.477686	-284.766054	720.193069	531.261082	-257.730298	661.401113	527.946101	-225.429106	654.672543	518.397955	-300.533835	588.996658	506.527601	-299.944199	477.672884	487.933656	-383.278883	283.758991	428.601918	-483.094684	256.136497	464.759327	-449.866932	230.599382	444.121553	-474.188394	194.553293	408.353733	-575.691421	149.360378	439.091058	-663.363465	142.007360	396.760850	-463.571619	54.275661	355.773721	-461.552950	53.484133	396.404325	-502.321795	40.189060	453.100331	
542	2.705000	89.733646	1620.230597	415.982842	-88.836883	1645.535009	328.398943	-50.202306	1626.471624	447.412349	-173.154552	1501.129755	371.852722	-294.264298	1170.053883	357.362725	-53.038761	1381.370733	348.666349	-104.648419	1451.339540	204.889986	-234.198034	1326.777755	100.448084	-214.885004	1281.688500	102.105621	-270.116889	1271.189559	78.846190	-344.917795	1184.208113	57.149150	-372.519221	1173.876997	127.253959	-322.522082	923.510920	60.836328	-391.399908	925.377361	31.323938	-308.713414	866.179565	6.421723	-97.778762	1449.470544	520.891149	-157.846337	1303.447759	613.322625	-128.406986	1266.085733	611.529671	-181.796176	1243.735181	643.120938	-193.587561	1106.994312	670.709039	-215.760831	1085.507637	606.462347	47.086867	1037.072616	596.015789	36.810404	989.181606	644.756442	114.129127	1054.152782	636.739313	-168.846148	964.522013	465.547228	-327.029556	1092.193629	356.857773	-337.382945	1059.488883	330.594265	-335.673741	1062.996368	389.531373	-139.514075	769.292344	157.430365	-67.453278	723.573566	157.277555	-30.802135	748.363553	173.647938	-62.367412	661.281059	158.250136	-107.280289	476.078050	213.135553	-164.859026	524.146000	166.897975	-158.592270	488.069727	188.228381	-235.655410	468.552259	221.564510	-394.578596	488.461508	216.405354	-450.733921	557.584608	264.663731	-425.576966	337.766709	284.972088	-422.208312	335.947543	237.896329	-261.093090	722.618812	530.790250	-236.071390	662.878852	527.115499	-204.158955	655.243611	517.220866	-281.762673	592.040447	506.765623	-285.723355	480.942908	488.226382	-372.957252	288.084065	429.943272	-473.206744	262.627671	466.196232	-440.359269	236.186668	445.967596	-465.138248	200.015144	410.375228	-567.731196	156.458461	440.783197	-655.089272	153.298416	398.778487	-461.918829	54.366574	356.110680	-459.659123	53.598152	396.710134	-500.503793	41.558040	453.425761	
